<svg width="1920" height="1080" viewBox="0 0 1920 1080" xmlns="http://www.w3.org/2000/svg"><rect width="1920" height="1080" fill="#e8faff"/><path d="M 0,1080 C 0,1080 0,154 0,154 C 61.69948980940549,147.03428586534142 123.39897961881098,140.0685717306828 206,146 C 288.601020381189,151.9314282693172 392.10357133416153,170.7599989426102 463,171 C 533.8964286658385,171.2400010573898 572.1867350445425,152.89143249887653 625,160 C 677.8132649554575,167.10856750112347 745.1494884876682,199.6742710618837 826,202 C 906.8505115123318,204.3257289381163 1001.215311004785,176.41148325358853 1083,174 C 1164.784688995215,171.58851674641147 1233.989267493193,194.67979592376219 1306,204 C 1378.010732506807,213.32020407623781 1452.8276190224433,208.8693330513627 1508,198 C 1563.1723809775567,187.1306669486373 1598.7002564170346,169.84287187078698 1679,168 C 1759.2997435829654,166.15712812921302 1884.3713553094187,179.75917946548944 1932,180 C 1979.6286446905813,180.24082053451056 1949.8143223452907,167.1204102672553 1920,154 C 1920,154 1920,1080 1920,1080 Z" fill="#bfdbfe" opacity="0.08571428571428572"/><path d="M 0,1080 C 0,1080 0,308 0,308 C 50.66394829363715,286.47271934230355 101.3278965872743,264.9454386846071 176,256 C 250.6721034127257,247.05456131539293 349.35236194453995,250.69096460387533 428,274 C 506.64763805546005,297.30903539612467 565.262655634566,340.29070289989164 631,338 C 696.737344365434,335.70929710010836 769.5970155171958,288.1462237965582 835,291 C 900.4029844828042,293.8537762034418 958.3492822966507,347.12440191387554 1028,358 C 1097.6507177033493,368.87559808612446 1179.0058552962012,337.35616854793943 1271,311 C 1362.9941447037988,284.64383145206057 1465.6272965185442,263.4509238943667 1529,275 C 1592.3727034814558,286.5490761056333 1616.4849586296225,330.84013587459356 1691,327 C 1765.5150413703775,323.15986412540644 1890.432868962965,271.188532607259 1937,260 C 1983.567131037035,248.811467392741 1951.7835655185177,278.4057336963705 1920,308 C 1920,308 1920,1080 1920,1080 Z" fill="#bfdbfe" opacity="0.17142857142857143"/><path d="M 0,1080 C 0,1080 0,462 0,462 C 57.23615480187158,451.09763673372277 114.47230960374316,440.1952734674456 198,458 C 281.52769039625684,475.8047265325544 391.346916386899,522.3165428639404 465,509 C 538.653083613101,495.68345713605953 576.1400248486611,422.53855507679293 645,408 C 713.8599751513389,393.46144492320707 814.0929842184566,437.52923682888786 877,463 C 939.9070157815434,488.47076317111214 965.488038277512,495.34449760765557 1040,483 C 1114.511961722488,470.65550239234443 1237.9548626714954,439.09277274049003 1317,433 C 1396.0451373285046,426.90722725950997 1430.6925110365062,446.2844114303841 1478,469 C 1525.3074889634938,491.7155885696159 1585.2750931824792,517.7695815379735 1671,504 C 1756.7249068175208,490.2304184620265 1868.2071162335774,436.6372624177218 1914,423 C 1959.7928837664226,409.3627375822782 1939.8964418832113,435.6813687911391 1920,462 C 1920,462 1920,1080 1920,1080 Z" fill="#bfdbfe" opacity="0.2571428571428571"/><path d="M 0,1080 C 0,1080 0,617 0,617 C 94.0575220069259,591.0320521293188 188.1150440138518,565.0641042586376 250,574 C 311.8849559861482,582.9358957413624 341.59734595151866,626.7756350947685 393,650 C 444.40265404848134,673.2243649052315 517.4955721800735,675.8333553622882 609,665 C 700.5044278199265,654.1666446377118 810.4203653281874,629.8909434560787 889,629 C 967.5796346718126,628.1090565439213 1014.8229665071772,650.6028708133971 1080,659 C 1145.1770334928228,667.3971291866029 1228.2877686431043,661.6975732903328 1293,652 C 1357.7122313568957,642.3024267096672 1404.025958920405,628.6068360252716 1474,612 C 1543.974041079595,595.3931639747284 1637.6083956752755,575.8750826085807 1723,571 C 1808.3916043247245,566.1249173914193 1885.5404583784928,575.8928335404055 1917,586 C 1948.4595416215072,596.1071664595945 1934.2297708107535,606.5535832297973 1920,617 C 1920,617 1920,1080 1920,1080 Z" fill="#bfdbfe" opacity="0.34285714285714286"/><path d="M 0,1080 C 0,1080 0,771 0,771 C 61.674403235612914,732.7637394591452 123.34880647122583,694.5274789182903 202,714 C 280.6511935287742,733.4725210817097 376.2791773507097,810.6538237859843 455,808 C 533.7208226492903,805.3461762140157 595.5344841259351,722.8572259377727 656,726 C 716.4655158740649,729.1427740622273 775.5828861455498,817.9172724629253 840,824 C 904.4171138544502,830.0827275370747 974.1339712918661,753.4736842105264 1058,726 C 1141.8660287081339,698.5263157894736 1239.881228686986,720.1879906949695 1309,745 C 1378.118771313014,769.8120093050305 1418.3411139601894,797.7743530095959 1479,784 C 1539.6588860398106,770.2256469904041 1620.7543154722566,714.7145972666472 1699,723 C 1777.2456845277434,731.2854027333528 1852.6416241507839,803.367257923815 1889,822 C 1925.3583758492161,840.632742076185 1922.679187924608,805.8163710380925 1920,771 C 1920,771 1920,1080 1920,1080 Z" fill="#bfdbfe" opacity="0.4285714285714286"/><path d="M 0,1080 C 0,1080 0,925 0,925 C 65.43497052525841,895.6806682703746 130.86994105051681,866.3613365407492 192,871 C 253.13005894948319,875.6386634592508 309.9552063231912,914.2353221073778 396,922 C 482.0447936768088,929.7646778926222 597.3092336567183,906.6973750297393 672,915 C 746.6907663432817,923.3026249702607 780.8078590499354,962.9751777736657 837,955 C 893.1921409500646,947.0248222263343 971.4593301435407,891.4019138755981 1038,896 C 1104.5406698564593,900.5980861244019 1159.3548203759021,965.4171667239419 1242,983 C 1324.6451796240979,1000.5828332760581 1435.121388352851,970.9294192286342 1512,966 C 1588.878611647149,961.0705807713658 1632.159626212694,980.8651563615214 1709,964 C 1785.840373787306,947.1348436384786 1896.240106796373,893.6099553252795 1937,881 C 1977.759893203627,868.3900446747205 1948.8799466018136,896.6950223373602 1920,925 C 1920,925 1920,1080 1920,1080 Z" fill="#bfdbfe" opacity="0.5142857142857142"/><path d="M 0,1080 C 0,1080 0,1079 0,1079 C 52.96893917364986,1079.6915329509106 105.93787834729972,1080.3830659018215 193,1079 C 280.0621216527003,1077.6169340981785 401.21742578445105,1074.159269343625 465,1079 C 528.782574215549,1083.840730656375 535.1924185148961,1096.9798567236778 601,1103 C 666.8075814851039,1109.0201432763222 792.012900155965,1107.9213037616641 875,1086 C 957.987099844035,1064.0786962383359 998.7559808612439,1021.3349282296654 1058,1033 C 1117.2440191387561,1044.6650717703346 1194.9631763990592,1110.738983319675 1277,1126 C 1359.0368236009408,1141.261016680325 1445.3913135425203,1105.7091384916337 1510,1081 C 1574.6086864574797,1056.2908615083663 1617.4715694308597,1042.424462713791 1688,1040 C 1758.5284305691403,1037.575537286209 1856.72240873404,1046.5930106532026 1900,1055 C 1943.27759126596,1063.4069893467974 1931.63879563298,1071.2034946733988 1920,1079 C 1920,1079 1920,1080 1920,1080 Z" fill="#bfdbfe" opacity="0.6"/></svg>